<?xml version="1.0" encoding="UTF-8" standalone="no" ?>
<!DOCTYPE svg PUBLIC "-//W3C//DTD SVG 1.1//EN" "http://www.w3.org/Graphics/SVG/1.1/DTD/svg11.dtd">
<svg xmlns="http://www.w3.org/2000/svg" xmlns:xlink="http://www.w3.org/1999/xlink" version="1.1" width="1280" height="1024" viewBox="0 0 1280 1024" xml:space="preserve">
<desc>Created with Fabric.js 3.6.3</desc>
<defs>
</defs>
<g transform="matrix(1.9692780337941629 0 0 1.9692780337941629 640.0153846153846 512.012312418764)" id="background-logo"  >
<rect style="stroke: none; stroke-width: 1; stroke-dasharray: none; stroke-linecap: butt; stroke-dashoffset: 0; stroke-linejoin: miter; stroke-miterlimit: 4; fill: rgb(0,0,0); fill-rule: nonzero; opacity: 1;"  paint-order="stroke"  x="-325" y="-260" rx="0" ry="0" width="650" height="520" />
</g>
<g transform="matrix(1.9692780337941629 0 0 1.9692780337941627 641.2673377403845 739.7659338012526)" id="text-logo-path"  >
<path style="stroke: none; stroke-width: 1; stroke-dasharray: none; stroke-linecap: butt; stroke-dashoffset: 0; stroke-linejoin: miter; stroke-miterlimit: 4; fill: rgb(65,117,5); fill-rule: nonzero; opacity: 1;"  paint-order="stroke"  transform=" translate(-187.515, 40.29)" d="M 21.07 0 L 12.41 0 L 12.41 -80.59 L 46.5 -80.59 L 46.5 -73.14 L 21.07 -73.14 L 21.07 -44.62 L 41.54 -44.62 L 41.54 -37.18 L 21.07 -37.18 L 21.07 0 Z M 62.54 -15.5 L 62.54 -15.5 L 62.54 -80.59 L 71.26 -80.59 L 71.26 -15.5 Q 71.26 -10.78 73.29 -8.17 Q 75.32 -5.57 80.77 -5.57 Q 86.22 -5.57 90.82 -9.78 Q 95.42 -13.99 95.42 -17.98 L 95.42 -17.98 L 95.42 -80.59 L 104.08 -80.59 L 104.08 0 L 100.39 0 L 97.18 -7.93 Q 94.45 -3.45 90.15 -0.79 Q 85.86 1.88 80.77 1.88 L 80.77 1.88 Q 62.54 1.88 62.54 -15.5 Z M 137.56 0 L 128.9 0 L 128.9 -80.59 L 132.6 -80.59 L 135.69 -72.54 Q 141.62 -82.46 152.21 -82.46 L 152.21 -82.46 Q 170.44 -82.46 170.44 -65.09 L 170.44 -65.09 L 170.44 0 L 161.78 0 L 161.78 -65.09 Q 161.78 -69.81 159.72 -72.41 Q 157.66 -75.02 152.21 -75.02 Q 146.77 -75.02 142.16 -70.81 Q 137.56 -66.6 137.56 -62.61 L 137.56 -62.61 L 137.56 0 Z M 202.65 0 L 193.99 0 L 193.99 -80.59 L 197.69 -80.59 L 200.77 -72.54 Q 206.71 -82.46 217.3 -82.46 L 217.3 -82.46 Q 235.53 -82.46 235.53 -65.09 L 235.53 -65.09 L 235.53 0 L 226.87 0 L 226.87 -65.09 Q 226.87 -69.81 224.81 -72.41 Q 222.75 -75.02 217.3 -75.02 Q 211.85 -75.02 207.25 -70.81 Q 202.65 -66.6 202.65 -62.61 L 202.65 -62.61 L 202.65 0 Z M 256.6 -15.5 L 256.6 -15.5 L 256.6 -27.91 Q 256.6 -45.29 274.46 -45.29 L 274.46 -45.29 L 288.81 -45.29 L 288.81 -65.57 Q 288.81 -70.05 285.96 -72.54 Q 283.12 -75.02 277.55 -75.02 L 277.55 -75.02 Q 266.53 -75.02 266.53 -65.57 L 266.53 -65.57 L 266.53 -58.31 L 257.81 -58.31 L 257.81 -65.09 Q 257.81 -73.38 262.71 -77.92 Q 267.62 -82.46 277.55 -82.46 Q 287.48 -82.46 292.5 -77.92 Q 297.53 -73.38 297.53 -65.09 L 297.53 -65.09 L 297.53 0 L 293.77 0 L 290.56 -7.93 Q 287.96 -3.45 283.75 -0.79 Q 279.54 1.88 274.46 1.88 L 274.46 1.88 Q 256.6 1.88 256.6 -15.5 Z M 265.26 -27.91 L 265.26 -15.5 Q 265.26 -10.78 267.25 -8.17 Q 269.25 -5.57 274.46 -5.57 Q 279.67 -5.57 284.12 -9.6 Q 288.57 -13.62 288.81 -17.62 L 288.81 -17.62 L 288.81 -37.84 L 274.46 -37.84 Q 269.25 -37.84 267.25 -35.24 Q 265.26 -32.63 265.26 -27.91 L 265.26 -27.91 Z M 329.74 0 L 321.08 0 L 321.08 -80.59 L 324.77 -80.59 L 327.86 -72.54 Q 333.79 -82.46 344.39 -82.46 L 344.39 -82.46 Q 362.62 -82.46 362.62 -65.09 L 362.62 -65.09 L 362.62 0 L 353.96 0 L 353.96 -65.09 Q 353.96 -69.81 351.9 -72.41 Q 349.84 -75.02 344.39 -75.02 Q 338.94 -75.02 334.34 -70.81 Q 329.74 -66.6 329.74 -62.61 L 329.74 -62.61 L 329.74 0 Z" stroke-linecap="round" />
</g>
<g transform="matrix(1.4989031710297076 0 0 1.4989031710297076 640.0153846153846 347.97145220371027)" id="logo-logo"  >
<g style=""  paint-order="stroke"   >
		<g transform="matrix(2.9648606115253204 0 0 -2.9648606115253204 0 0)"  >
<radialGradient id="SVGID_1_614281" gradientUnits="userSpaceOnUse" gradientTransform="matrix(44.13501 0 0 -44.13501 162.5 145.36865)"  cx="-1.4210854715202004e-14" cy="-1.4210854715202004e-14" r="1" fx="-1.4210854715202004e-14" fy="-1.4210854715202004e-14">
<stop offset="0%" style="stop-color:rgb(114,182,35);stop-opacity: 1"/>
<stop offset="10.739646%" style="stop-color:rgb(114,182,35);stop-opacity: 1"/>
<stop offset="49.120200000000004%" style="stop-color:rgb(108,167,30);stop-opacity: 1"/>
<stop offset="65.499841%" style="stop-color:rgb(108,167,30);stop-opacity: 1"/>
<stop offset="100%" style="stop-color:rgb(63,101,18);stop-opacity: 1"/>
</radialGradient>
<path style="stroke: none; stroke-width: 1; stroke-dasharray: none; stroke-linecap: butt; stroke-dashoffset: 0; stroke-linejoin: miter; stroke-miterlimit: 4; fill: url(#SVGID_1_614281); fill-rule: nonzero; opacity: 1;"  paint-order="stroke"  transform=" translate(-162.50000000000006, -145.36849999999995)" d="m 153.824 189.017 c -2.57 -1.399 -4.752 -3.423 -6.487 -6.016 v 0 l -1.436 -2.145 l 2.533 -0.506 c 0.816 -0.162 1.655 -0.498 2.495 -1 v 0 c 2.469 -1.515 4.19 -3.521 5.414 -6.308 v 0 l 0.018 -0.038 c 0.492 -1.05 0.859 -2.144 1.107 -3.329 v 0 c -1.606 1.719 -3.535 3.232 -5.776 4.527 v 0 c -1.845 1.144 -3.836 1.789 -5.884 2.403 v 0 l -1.775 0.53 l -0.404 -1.808 c -0.426 -1.904 -0.65 -4.066 -0.65 -6.251 v 0 c 0 -2.5 0.31 -4.874 0.927 -7.106 v 0 c -0.869 0.83 -1.624 1.704 -2.261 2.62 v 0 l -0.051 0.07 c -1.76 2.279 -2.691 4.927 -2.691 7.657 v 0 c 0 1.13 0 1.946 0.319 2.897 v 0 l 0.878 2.622 l -2.743 -0.364 c -3.283 -0.437 -5.926 -1.317 -8.572 -2.852 v 0 l -0.057 -0.035 c -2.861 -1.816 -4.852 -3.88 -6.082 -6.308 v 0 c -1.67 -2.864 -2.446 -5.574 -2.446 -8.522 v 0 c 0 -2.876 0.668 -5.778 1.989 -8.629 v 0 l 1.038 -2.236 l 1.747 1.74 c 0.667 0.666 1.35 1.19 2.275 1.747 v 0 c 2.328 1.239 5.062 1.779 8.144 1.607 v 0 c 1.146 -0.148 2.301 -0.408 3.459 -0.779 v 0 c -2.327 -0.539 -4.537 -1.441 -6.609 -2.698 v 0 c -1.954 -1.085 -3.714 -2.403 -5.231 -3.917 v 0 l -1.225 -1.222 l 1.225 -1.221 c 1.516 -1.514 3.276 -2.832 5.231 -3.918 v 0 c 2.072 -1.257 4.282 -2.158 6.609 -2.698 v 0 c -1.158 -0.371 -2.313 -0.63 -3.458 -0.776 v 0 c -3.21 -0.18 -5.846 0.4 -8.093 1.777 v 0 l -0.127 0.077 l -0.136 0.055 c -0.722 0.288 -1.339 0.719 -2.065 1.442 v 0 l -1.689 1.684 l -1.07 -2.132 c -1.3 -2.585 -2.014 -5.667 -2.014 -8.677 v 0 c 0 -2.948 0.776 -5.658 2.446 -8.522 v 0 c 1.232 -2.43 3.221 -4.492 6.083 -6.308 v 0 l 0.057 -0.035 c 2.802 -1.626 5.48 -2.446 8.684 -2.66 v 0 l 2.739 -0.182 l -1.023 2.547 c -0.283 0.705 -0.283 1.499 -0.283 2.6 v 0 c 0 2.731 0.931 5.378 2.691 7.656 v 0 l 0.051 0.071 c 0.636 0.915 1.392 1.789 2.261 2.619 v 0 c -0.617 -2.232 -0.927 -4.606 -0.927 -7.105 v 0 c 0 -2.088 0.197 -4.005 0.643 -6.215 v 0 l 0.373 -1.856 l 1.812 0.542 c 2.02 0.604 3.785 1.239 5.833 2.372 v 0 l 0.027 0.014 c 2.252 1.299 4.19 2.817 5.801 4.543 v 0 c -0.249 -1.185 -0.615 -2.279 -1.107 -3.328 v 0 c -1.293 -2.758 -3.082 -4.87 -5.32 -6.278 v 0 l -4.891 -1.948 l 1.187 -1.773 c 1.734 -2.592 3.916 -4.615 6.488 -6.015 v 0 c 2.609 -1.512 5.479 -2.247 8.776 -2.247 v 0 c 3.117 0 6.001 0.756 8.574 2.247 v 0 c 2.438 1.328 4.67 3.325 6.634 5.937 v 0 l 1.711 2.273 l -2.806 0.467 c -0.642 0.106 -1.269 0.392 -1.934 0.695 v 0 c -0.265 0.12 -0.536 0.245 -0.816 0.362 v 0 c -2.23 1.399 -4.013 3.498 -5.305 6.236 v 0 c -0.429 1.079 -0.767 2.155 -1.012 3.248 v 0 c 1.588 -1.674 3.488 -3.15 5.685 -4.419 v 0 l 0.026 -0.014 c 1.968 -1.088 3.901 -1.732 5.783 -2.356 v 0 l 1.853 -0.617 l 0.385 1.915 c 0.443 2.212 0.641 4.129 0.641 6.215 v 0 c 0 2.519 -0.315 4.91 -0.941 7.158 v 0 c 0.926 -0.848 1.76 -1.752 2.501 -2.707 v 0 c 1.646 -2.381 2.516 -5.039 2.515 -7.693 v 0 c 0 -1.1 0 -1.894 -0.283 -2.599 v 0 l -1.023 -2.547 l 2.74 0.182 c 3.204 0.214 5.883 1.034 8.684 2.66 v 0 l 0.058 0.036 c 2.861 1.815 4.852 3.879 6.083 6.307 v 0 c 1.67 2.865 2.446 5.574 2.446 8.522 v 0 c 0 3.01 -0.715 6.092 -2.015 8.677 v 0 l -1.071 2.133 l -1.689 -1.685 c -0.725 -0.724 -1.341 -1.154 -2.063 -1.442 v 0 l -0.138 -0.055 l -0.125 -0.076 c -2.247 -1.378 -4.881 -1.958 -8.094 -1.778 v 0 c -1.159 0.148 -2.308 0.405 -3.439 0.769 v 0 c 2.326 0.537 4.591 1.438 6.775 2.695 v 0 c 2.202 1.221 3.787 2.67 5.046 3.928 v 0 l 1.226 1.222 l -1.226 1.221 c -1.26 1.257 -2.845 2.707 -5.046 3.927 v 0 c -2.184 1.258 -4.449 2.159 -6.775 2.696 v 0 c 1.131 0.365 2.28 0.621 3.441 0.77 v 0 c 3.081 0.173 5.815 -0.367 8.143 -1.606 v 0 c 0.925 -0.556 1.608 -1.08 2.275 -1.746 v 0 l 1.747 -1.742 l 1.038 2.237 c 1.321 2.851 1.99 5.753 1.99 8.629 v 0 c 0 2.948 -0.776 5.658 -2.446 8.522 v 0 c -1.231 2.428 -3.22 4.491 -6.083 6.308 v 0 l -0.057 0.035 c -2.503 1.453 -5.302 2.386 -8.557 2.85 v 0 l -2.766 0.393 l 0.887 -2.649 c 0.317 -0.949 0.317 -1.765 0.318 -2.897 v 0 c 0 -2.654 -0.87 -5.312 -2.514 -7.692 v 0 c -0.743 -0.956 -1.577 -1.859 -2.503 -2.708 v 0 c 0.626 2.248 0.941 4.64 0.941 7.159 v 0 c 0 2.083 -0.198 4 -0.643 6.215 v 0 l -0.374 1.857 l -1.811 -0.543 c -2.049 -0.614 -4.04 -1.259 -5.884 -2.403 v 0 c -2.183 -1.261 -4.076 -2.765 -5.706 -4.539 v 0 c 0.251 1.198 0.604 2.331 1.054 3.379 v 0 c 1.225 2.787 2.945 4.793 5.417 6.309 v 0 c 0.884 0.527 1.699 0.833 2.642 0.99 v 0 l 2.805 0.466 l -1.711 2.274 c -1.966 2.612 -4.199 4.609 -6.634 5.936 v 0 c -2.573 1.491 -5.457 2.247 -8.575 2.247 v 0 c -3.296 0 -6.166 -0.734 -8.776 -2.247 m 7.45 -25.504 c 0.235 4.426 -0.314 7.799 -1.78 10.936 v 0 c -1.502 3.409 -3.717 5.977 -6.77 7.849 v 0 l -0.017 0.011 c -0.364 0.217 -0.731 0.414 -1.101 0.587 v 0 c 1.137 1.275 2.439 2.314 3.888 3.1 v 0 l 0.044 0.026 c 2.074 1.205 4.383 1.792 7.062 1.792 v 0 c 2.509 0 4.817 -0.603 6.862 -1.792 v 0 l 0.044 -0.026 c 1.384 -0.751 2.702 -1.782 3.935 -3.08 v 0 c -0.384 -0.176 -0.764 -0.378 -1.149 -0.607 v 0 l -0.017 -0.011 c -3.059 -1.876 -5.277 -4.449 -6.784 -7.881 v 0 c -1.365 -3.174 -1.975 -6.945 -1.765 -10.904 v 0 l 0.331 -6.235 l 2.918 5.52 c 1.927 3.647 4.571 6.404 8.08 8.43 v 0 l 0.051 0.029 c 0.974 0.607 2.066 1.06 3.214 1.453 v 0 c 0.172 -1.231 0.25 -2.402 0.25 -3.634 v 0 c 0 -4.284 -0.981 -7.966 -2.999 -11.256 v 0 l -3.46 -5.644 l 5.775 3.237 c 3.441 1.928 6.284 4.329 8.453 7.137 v 0 l 0.051 0.069 c 2.065 2.97 3.157 6.323 3.157 9.699 v 0 c 0 0.433 0 0.855 -0.019 1.284 v 0 c 1.812 -0.446 3.436 -1.089 4.924 -1.95 v 0 c 2.322 -1.479 3.906 -3.105 4.843 -4.972 v 0 l 0.052 -0.099 c 1.385 -2.363 2.004 -4.468 2.004 -6.826 v 0 c -0.001 -1.672 -0.281 -3.366 -0.835 -5.058 v 0 c -0.322 0.224 -0.664 0.443 -1.031 0.663 v 0 l -0.07 0.039 c -2.915 1.565 -6.305 2.246 -10.068 2.025 v 0 l -0.113 -0.01 c -3.588 -0.447 -7.054 -1.767 -10.3 -3.922 v 0 l -5.207 -3.457 l 6.243 0.296 c 3.917 0.187 7.702 -0.758 11.259 -2.81 v 0 l 0.028 -0.016 c 1.035 -0.572 1.98 -1.243 2.997 -2.136 v 0 c -1.016 -0.894 -1.962 -1.565 -2.997 -2.138 v 0 l -0.028 -0.015 c -3.556 -2.052 -7.339 -2.996 -11.259 -2.81 v 0 l -6.241 0.296 l 5.205 -3.457 c 3.246 -2.156 6.712 -3.475 10.301 -3.923 v 0 l 0.112 -0.009 c 0.459 -0.028 0.917 -0.041 1.361 -0.041 v 0 c 3.319 0 6.158 0.733 8.671 2.243 v 0 c 0.399 0.167 0.779 0.36 1.148 0.587 v 0 c 0.537 -1.625 0.824 -3.384 0.824 -5.121 v 0 c -0.001 -2.357 -0.619 -4.462 -2.004 -6.826 v 0 l -0.052 -0.097 c -0.937 -1.869 -2.521 -3.496 -4.843 -4.974 v 0 c -1.63 -0.941 -3.208 -1.555 -4.922 -1.896 v 0 c 0.017 0.407 0.017 0.817 0.017 1.233 v 0 c 0 3.374 -1.092 6.728 -3.157 9.696 v 0 l -0.051 0.071 c -2.169 2.808 -5.012 5.208 -8.453 7.136 v 0 l -5.775 3.237 l 3.46 -5.645 c 2.018 -3.289 2.999 -6.971 2.999 -11.254 v 0 c 0 -1.219 -0.077 -2.375 -0.243 -3.589 v 0 c -1.116 0.401 -2.203 0.848 -3.284 1.444 v 0 c -3.718 2.147 -6.421 4.958 -8.035 8.357 v 0 l -2.921 6.146 l -0.361 -6.795 c -0.204 -3.868 0.366 -7.422 1.749 -10.866 v 0 l 0.039 -0.089 c 1.607 -3.43 3.881 -6.066 6.761 -7.831 v 0 l 0.126 -0.078 l 0.138 -0.053 c 0.254 -0.103 0.525 -0.226 0.809 -0.356 v 0 c 0.05 -0.022 0.1 -0.046 0.152 -0.069 v 0 c -1.25 -1.327 -2.587 -2.379 -3.994 -3.143 v 0 l -0.044 -0.024 c -2.045 -1.189 -4.353 -1.792 -6.861 -1.792 v 0 c -2.68 0 -4.99 0.586 -7.063 1.792 v 0 l -0.044 0.024 c -1.485 0.806 -2.814 1.876 -3.97 3.193 v 0 l 1.074 0.428 l 0.126 0.078 c 2.879 1.765 5.154 4.4 6.762 7.831 v 0 c 1.472 3.141 2.023 6.519 1.788 10.955 v 0 l -0.361 6.794 l -2.922 -6.145 c -1.614 -3.399 -4.318 -6.211 -8.035 -8.357 v 0 c -1.139 -0.63 -2.193 -1.085 -3.279 -1.475 v 0 c -0.17 1.224 -0.247 2.391 -0.247 3.62 v 0 c 0 4.283 0.98 7.965 2.998 11.254 v 0 l 3.462 5.646 l -5.777 -3.238 c -3.561 -1.996 -6.347 -4.409 -8.276 -7.17 v 0 c -2.214 -2.882 -3.385 -6.247 -3.385 -9.733 v 0 c 0 -0.416 0 -0.825 0.017 -1.233 v 0 c -1.714 0.341 -3.292 0.955 -4.921 1.896 v 0 c -2.321 1.478 -3.906 3.105 -4.843 4.974 v 0 l -0.053 0.097 c -1.384 2.364 -2.002 4.469 -2.002 6.826 v 0 c 0 1.737 0.286 3.497 0.821 5.121 v 0 c 0.371 -0.226 0.75 -0.42 1.149 -0.587 v 0 c 2.513 -1.51 5.352 -2.243 8.671 -2.243 v 0 c 0.443 0 0.902 0.013 1.361 0.041 v 0 l 0.112 0.009 c 3.49 0.436 7.01 1.745 10.462 3.896 v 0 l 5.599 3.487 l -6.59 -0.299 c -4.107 -0.185 -7.881 0.752 -11.228 2.789 v 0 l -0.061 0.036 c -1.131 0.628 -2.186 1.342 -3.15 2.138 v 0 c 0.964 0.794 2.019 1.51 3.15 2.136 v 0 l 0.061 0.036 c 3.349 2.039 7.124 2.977 11.228 2.79 v 0 l 6.591 -0.299 l -5.601 3.488 c -3.451 2.149 -6.97 3.459 -10.46 3.894 v 0 l -0.113 0.01 c -3.761 0.221 -7.152 -0.46 -10.069 -2.025 v 0 l -0.07 -0.039 c -0.366 -0.22 -0.708 -0.439 -1.03 -0.663 v 0 c -0.554 1.692 -0.833 3.386 -0.833 5.058 v 0 c 0 2.358 0.618 4.463 2.002 6.826 v 0 l 0.053 0.099 c 0.936 1.867 2.521 3.494 4.843 4.972 v 0 c 1.568 0.908 3.147 1.544 4.924 1.97 v 0 c -0.02 -0.436 -0.02 -0.866 -0.02 -1.305 v 0 c 0 -3.487 1.171 -6.851 3.385 -9.734 v 0 c 1.93 -2.762 4.715 -5.174 8.276 -7.17 v 0 l 5.777 -3.237 l -3.462 5.644 c -2.018 3.29 -2.998 6.972 -2.998 11.256 v 0 c 0 1.244 0.081 2.477 0.238 3.638 v 0 c 1.152 -0.394 2.247 -0.847 3.225 -1.457 v 0 l 0.05 -0.029 c 3.725 -2.149 6.433 -4.962 8.048 -8.365 v 0 l 2.922 -6.145 z" stroke-linecap="round" />
</g>
</g>
</g>
</svg>